PathFileType	4	(X/Y/Z)	SUBJ11_1_walk_RCNL2025.trc
DataRate	CameraRate	NumFrames	NumMarkers	Units	OrigDataRate	OrigDataStartFrame	OrigNumFrames
100	100	13	25	mm	100	111	443
Frame#	Time	R_Shoulder			L_Shoulder			C7			J_Notch			R_Elbow			L_Elbow			R_Wrist			L_Wrist			R_Asis			L_Asis			Sacral			Thoracic			Sternum			R_Thigh_Lateral			R_Knee_Lateral			R_Shank_Lateral			R_Ankle_Lateral			R_Heel			R_Toe			L_Thigh_Lateral			L_Knee_Lateral			L_Shank_Lateral			L_Ankle_Lateral			L_Heel			L_Toe		
		X1	Y1	Z1	X2	Y2	Z2	X3	Y3	Z3	X4	Y4	Z4	X5	Y5	Z5	X6	Y6	Z6	X7	Y7	Z7	X8	Y8	Z8	X9	Y9	Z9	X10	Y10	Z10	X11	Y11	Z11	X12	Y12	Z12	X13	Y13	Z13	X14	Y14	Z14	X15	Y15	Z15	X16	Y16	Z16	X17	Y17	Z17	X18	Y18	Z18	X19	Y19	Z19	X20	Y20	Z20	X21	Y21	Z21	X22	Y22	Z22	X23	Y23	Z23	X24	Y24	Z24	X25	Y25	Z25
111	1.10000000	-2186.391846	1450.528076	246.390945	-2163.673340	1440.563965	-149.255661	-2218.855225	1491.942749	48.491196	-2072.250977	1389.384277	64.322296	-2230.076416	1109.683472	335.074432	-2224.492188	1098.561401	-221.275513	-2125.101562	869.633484	319.825089	-2186.330322	836.723114	-205.515160	-2116.149414	968.404419	213.917282	-2095.363525	972.101562	-77.409264	-2282.848389	992.356018	48.582302	-2295.411133	1309.378662	43.739807	-2008.107788	1190.934204	72.308540	-2179.453613	618.645203	244.853317	-2159.141846	466.344330	177.966553	-2172.465332	260.451324	210.919708	-2196.617676	61.230637	144.047104	-2255.025635	44.682991	94.805885	-2059.627197	42.314152	112.733879	-2100.175293	630.689758	-177.063034	-2076.775391	487.556915	-99.213409	-2195.457275	320.733215	-127.001701	-2311.611328	168.711227	-51.142693	-2355.477051	192.982849	6.519320	-2216.786865	72.421257	-29.085451
112	1.11000000	-2175.014160	1450.988159	245.779205	-2153.320801	1440.158203	-149.862274	-2207.865723	1491.930420	48.037373	-2061.274902	1389.338623	63.652157	-2216.651855	1110.362671	336.318054	-2218.949463	1098.986694	-221.214523	-2107.133789	872.452026	320.410263	-2184.971558	836.564758	-206.811897	-2105.859863	968.145264	213.801865	-2084.252686	972.312744	-77.670898	-2272.264893	992.390930	47.969437	-2284.530029	1309.453247	43.769859	-1997.299561	1190.805176	72.017029	-2172.416992	618.615906	244.452850	-2155.343506	466.154419	177.239258	-2170.426025	260.319275	210.519699	-2196.488281	61.313309	143.867035	-2254.910889	44.876205	94.616951	-2059.608643	42.347073	112.641876	-2083.500732	632.736145	-177.726822	-2057.210449	489.052124	-99.806412	-2168.715332	316.904846	-128.155136	-2279.495117	160.748947	-52.954586	-2324.624268	182.982880	4.525349	-2180.409424	69.061424	-30.756685
113	1.12000000	-2163.601807	1451.152954	245.136871	-2142.873535	1439.555176	-150.528503	-2196.810059	1491.728516	47.549141	-2050.267090	1389.039429	62.917442	-2203.319336	1110.795654	337.544983	-2213.299805	1099.294312	-221.224594	-2089.354248	875.083771	320.964600	-2183.367310	836.380676	-208.029366	-2095.549561	967.742798	213.554138	-2073.537354	972.161682	-77.950691	-2261.712891	992.211121	47.405472	-2273.660156	1309.364502	43.717628	-1986.505981	1190.439453	71.644516	-2165.232422	618.482849	244.143433	-2151.454102	465.909698	176.621155	-2168.368896	260.134247	210.182556	-2196.358643	61.356609	143.692444	-2254.795410	45.085052	94.440987	-2059.588379	42.379894	112.584854	-2067.349609	634.514526	-178.310837	-2038.295410	490.350006	-100.271309	-2142.273682	313.041748	-129.272766	-2246.712402	152.410416	-54.812984	-2292.960205	172.314133	2.574230	-2143.343994	65.703529	-32.716919
114	1.13000000	-2152.158203	1451.046509	244.452225	-2132.321045	1438.766479	-151.257706	-2185.691650	1491.338989	46.996319	-2039.226562	1388.496582	62.118885	-2190.024170	1111.004517	338.732544	-2207.502197	1099.491211	-221.302353	-2071.773438	877.512756	321.492752	-2181.515625	836.162720	-209.154526	-2085.217041	967.198730	213.200272	-2063.174805	971.650818	-78.244499	-2251.178711	991.821533	46.903904	-2262.791260	1309.116943	43.569561	-1975.734619	1189.840332	71.185074	-2157.967041	618.245850	243.882187	-2147.467285	465.610901	176.100418	-2166.265381	259.906494	209.894531	-2196.219238	61.370777	143.524673	-2254.685059	45.313011	94.281120	-2059.550293	42.399685	112.529900	-2051.752930	635.975159	-178.791443	-2020.092407	491.422394	-100.626266	-2116.225098	309.201569	-130.387405	-2213.273926	143.832840	-56.733318	-2260.494873	161.154938	0.633246	-2105.671143	62.492638	-34.910488
115	1.14000000	-2140.686768	1450.695923	243.714951	-2121.659424	1437.804199	-152.052704	-2174.515625	1490.764404	46.352661	-2028.153564	1387.724243	61.261597	-2176.718018	1111.016846	339.857971	-2201.523926	1099.580811	-221.445587	-2054.399475	879.726654	321.996979	-2179.405640	835.901764	-210.178558	-2074.841064	966.516602	212.770004	-2053.096924	970.791809	-78.557983	-2240.648193	991.227600	46.470978	-2251.912842	1308.712280	43.314194	-1964.994019	1189.013184	70.631622	-2150.675049	617.911804	243.639526	-2143.367920	465.259979	175.666016	-2164.086426	259.644714	209.648346	-2196.061035	61.364189	143.368820	-2254.584717	45.565201	94.141953	-2059.485352	42.397343	112.455261	-2036.758911	637.062378	-179.141129	-2002.647339	492.224762	-100.893616	-2090.588379	305.389099	-131.522034	-2179.189697	135.156219	-58.725163	-2227.246582	149.690414	-1.334210	-2067.468018	59.575768	-37.268314
116	1.15000000	-2129.190430	1450.129639	242.914993	-2110.892578	1436.678833	-152.915665	-2163.287354	1490.007812	45.599430	-2017.048706	1386.739990	60.350407	-2163.365967	1110.862915	340.899231	-2195.339111	1099.562988	-221.653290	-2037.239929	881.716736	322.476715	-2177.019043	835.588837	-211.096252	-2064.392578	965.698914	212.292526	-2043.232178	969.604370	-78.903595	-2230.108154	990.434998	46.103558	-2241.015381	1308.150024	42.944157	-1954.287354	1187.966064	69.979790	-2143.385986	617.489563	243.402390	-2139.138184	464.858368	175.308548	-2161.808105	259.353851	209.439896	-2195.874756	61.342255	143.227859	-2254.495605	45.848019	94.025749	-2059.395752	42.372585	112.358109	-2022.417725	637.726624	-179.340225	-1985.987915	492.704987	-101.097977	-2065.317627	301.580475	-132.689667	-2144.476318	126.527740	-60.792126	-2193.241943	138.109421	-3.364109	-2028.814331	57.101536	-39.719864
117	1.16000000	-2117.670410	1449.376709	242.042236	-2100.030518	1435.398560	-153.847351	-2152.011475	1489.073120	44.727314	-2005.912598	1385.561523	59.384609	-2149.947510	1110.571655	341.837128	-2188.928467	1099.432129	-221.925186	-2020.304443	883.478546	322.930679	-2174.330078	835.214447	-211.907494	-2053.858643	964.743530	211.790405	-2033.511108	968.116333	-79.294968	-2219.546875	989.449524	45.788361	-2230.091553	1307.427979	42.456310	-1943.608276	1186.708008	69.232964	-2136.099121	616.985718	243.170624	-2134.757324	464.405396	175.019409	-2159.413574	259.035187	209.265335	-2195.650146	61.309559	143.101273	-2254.417480	46.168156	93.931740	-2059.291504	42.333416	112.251503	-2008.763306	637.936646	-179.388977	-1970.124146	492.815186	-101.265572	-2040.323730	297.748047	-133.895660	-2109.164307	118.104622	-62.934593	-2158.518799	126.604591	-5.487140	-1989.801514	55.219334	-42.200134
118	1.17000000	-2106.125488	1448.463989	241.087555	-2089.087891	1433.968506	-154.847809	-2140.692871	1487.964600	43.736927	-1994.744873	1384.203247	58.358208	-2136.461670	1110.168335	342.656952	-2182.275391	1099.177246	-222.261841	-2003.606079	885.011810	323.357971	-2171.304565	834.766968	-212.619316	-2043.248413	963.645447	211.275894	-2023.857178	966.365601	-79.745148	-2208.954590	988.276550	45.503307	-2219.134766	1306.543091	41.852200	-1932.942017	1185.248779	68.401741	-2128.788330	616.402039	242.950989	-2130.203125	463.898132	174.789673	-2156.890381	258.687744	209.119705	-2195.378174	61.271652	142.985001	-2254.348389	46.530132	93.858368	-2059.185547	42.290386	112.151779	-1995.802124	637.681213	-179.311981	-1955.047974	492.519348	-101.422493	-2015.507690	293.884430	-135.142197	-2073.306396	110.054886	-65.153282	-2123.128174	115.370934	-7.727604	-1950.536865	54.081013	-44.652962
119	1.18000000	-2094.549805	1447.414185	240.043915	-2078.081543	1432.392700	-155.916962	-2129.337158	1486.686768	42.637482	-1983.544189	1382.676025	57.266338	-2122.924561	1109.672241	343.348022	-2175.365723	1098.782227	-222.664764	-1987.161438	886.319519	323.757080	-2167.902344	834.231232	-213.245796	-2032.584351	962.404236	210.751862	-2014.163574	964.410645	-80.274033	-2198.322754	986.919861	45.220337	-2208.141357	1305.492310	41.138676	-1922.270386	1183.600586	67.497993	-2121.410645	615.734314	242.752762	-2125.452393	463.331421	174.608261	-2154.231201	258.309937	208.996628	-2195.053467	61.236298	142.873077	-2254.282715	46.935783	93.805031	-2059.086670	42.251221	112.068497	-1983.512451	636.957275	-179.151260	-1940.727417	491.794739	-101.590652	-1990.792480	290.020264	-136.433319	-2036.986694	102.553902	-67.452263	-2087.142334	104.602638	-10.106381	-1911.150269	53.837116	-47.032810
120	1.19000000	-2082.932617	1446.243652	238.907013	-2067.030518	1430.673340	-157.054916	-2117.950684	1485.243774	41.443935	-1972.307129	1380.987793	56.108955	-2109.369141	1109.094971	343.903229	-2168.182861	1098.229004	-223.136719	-1970.989685	887.405853	324.125397	-2164.085449	833.585754	-213.806671	-2021.890869	961.029236	210.213562	-2004.274536	962.333679	-80.915207	-2187.643311	985.379211	44.908752	-2197.108398	1304.274414	40.326790	-1911.577393	1181.775391	66.529289	-2113.919678	614.974243	242.584061	-2120.483643	462.698212	174.460770	-2151.433594	257.900024	208.888336	-2194.678955	61.215591	142.761490	-2254.214355	47.388309	93.771172	-2059.000732	42.219673	112.004036	-1971.863159	635.756226	-178.954910	-1927.102905	490.632904	-101.784012	-1966.142578	286.226379	-137.776627	-2000.330566	95.776962	-69.841476	-2050.671387	94.489761	-12.646505	-1871.806641	54.616856	-49.306374
121	1.20000000	-2071.260498	1444.961670	237.675964	-2055.951660	1428.812012	-158.262924	-2106.538086	1483.638550	40.173542	-1961.029907	1379.145020	54.886650	-2095.837646	1108.436768	344.318756	-2160.706787	1097.496582	-223.682007	-1955.111084	888.273163	324.460037	-2159.828003	832.802734	-214.326645	-2011.190063	959.538391	209.651031	-1994.010010	960.209351	-81.703133	-2176.908936	983.649414	44.538113	-2186.034424	1302.891235	39.429695	-1900.850464	1179.783325	65.498703	-2106.276855	614.113342	242.449799	-2115.278076	461.992249	174.331055	-2148.501709	257.456268	208.785385	-2194.270020	61.228184	142.650955	-2254.138428	47.896912	93.754707	-2058.929932	42.196602	111.956230	-1960.842651	634.055176	-178.766693	-1914.092041	489.044434	-102.007004	-1941.570801	282.602722	-139.182312	-1963.512207	89.888939	-72.337997	-2013.882812	85.212708	-15.377531	-1832.717773	56.502567	-51.454544
122	1.21000000	-2059.520752	1443.570923	236.353531	-2044.858154	1426.808472	-159.541870	-2095.102539	1481.873657	38.842129	-1949.709595	1377.153809	53.595661	-2082.377197	1107.687378	344.594696	-2152.915527	1096.561890	-224.306152	-1939.544861	888.920013	324.758636	-2155.119141	831.852844	-214.834526	-2000.496826	957.954163	209.053574	-1983.241455	958.062073	-82.646637	-2166.113525	981.722290	44.079693	-2174.920166	1301.346191	38.461082	-1890.074829	1177.633911	64.408829	-2098.460938	613.148560	242.351624	-2109.823242	461.211151	174.204895	-2145.443359	256.979340	208.676712	-2193.847412	61.297520	142.543716	-2254.051758	48.478111	93.750908	-2058.874512	42.181267	111.920212	-1950.475830	631.815430	-178.617020	-1901.597412	487.064484	-102.253220	-1917.138550	279.263489	-140.661652	-1926.762207	85.028969	-74.964516	-1977.015503	76.931488	-18.333481	-1794.145264	59.513756	-53.474686
123	1.22000000	-2047.702393	1442.069214	234.946396	-2033.753174	1424.659668	-160.888702	-2083.644775	1479.953857	37.461185	-1938.346191	1375.019653	52.229630	-2069.034424	1106.829590	344.734924	-2144.788818	1095.401367	-225.015121	-1924.308228	889.340729	325.018753	-2149.955078	830.711090	-215.361595	-1989.815308	956.301025	208.412506	-1971.961304	955.864014	-83.718170	-2155.253662	979.590576	43.507145	-2163.766602	1299.645386	37.434132	-1879.229858	1175.340942	63.263599	-2090.471680	612.085815	242.287949	-2104.115479	460.358063	174.072128	-2142.270020	256.475311	208.550919	-2193.428223	61.446449	142.436447	-2253.951904	49.154617	93.750702	-2058.833984	42.172527	111.890198	-1940.825439	628.990051	-178.518448	-1889.509033	484.753113	-102.503899	-1892.952515	276.320587	-142.223907	-1890.373169	81.290367	-77.743294	-1940.379517	69.771324	-21.542095	-1756.394897	63.596977	-55.384701
